<?xml version="1.0" encoding="utf-8"?>
<!-- Generator: Adobe Illustrator 16.0.3, SVG Export Plug-In . SVG Version: 6.00 Build 0)  -->
<!DOCTYPE svg PUBLIC "-//W3C//DTD SVG 1.0//EN" "http://www.w3.org/TR/2001/REC-SVG-20010904/DTD/svg10.dtd">
<svg version="1.0" id="Layer_1" xmlns="http://www.w3.org/2000/svg" xmlns:xlink="http://www.w3.org/1999/xlink" x="0px" y="0px"
	 width="595.28px" height="841.89px" viewBox="0 0 595.28 841.89" enable-background="new 0 0 595.28 841.89" xml:space="preserve">
<path stroke="#FFFFFF" stroke-miterlimit="10" d="M522.492,299.974v370.357h1.445v31.238H237.794v-31.238h258.619V311.267
	l-70.63-71.073l42.736,0.717l51.936,53.128l2.037-1.067v3.152l2.533,2.593L522.492,299.974z M473.231,311.644v3.256l2.533,2.488
	l-2.533,1.256v297.109h1.446v31.237H168.252v-31.237h278.896V329.973l-118.438-115.63l42.741,0.719l99.613,97.715L473.231,311.644z
	 M277.638,227.627v-37.342l155.021,153.671l-40.925-0.357l-0.502-0.479l-87.879,0.258v0.221h-25.715v-0.145h-0.364l0.364-25.349
	v-84.374V227.627z M355.874,519.381H177.047v-24.622h178.827V519.381z M355.874,443.057H177.047v-24.622h178.827V443.057z
	 M177.047,267.636h48.431v24.62h-48.431V267.636z M225.479,364.271h-48.431v-24.62h48.431V364.271z M124.642,568.002h279.041
	V343.957h26.08v224.045v24.99h-26.08H124.642h-13.911h-11.3V193.158h8.693h16.518h152.632v25.491H124.642V568.002z"/>
<g>
</g>
<g>
</g>
<g>
</g>
<g>
</g>
<g>
</g>
<g>
</g>
</svg>
