<?xml version="1.0" encoding="utf-8"?>
<!-- Generator: Adobe Illustrator 16.0.3, SVG Export Plug-In . SVG Version: 6.00 Build 0)  -->
<!DOCTYPE svg PUBLIC "-//W3C//DTD SVG 1.0//EN" "http://www.w3.org/TR/2001/REC-SVG-20010904/DTD/svg10.dtd">
<svg version="1.0" id="Layer_1" xmlns="http://www.w3.org/2000/svg" xmlns:xlink="http://www.w3.org/1999/xlink" x="0px" y="0px"
	 width="28px" height="28px" viewBox="0 0 96 96" enable-background="new 0 0 96 96" xml:space="preserve">
<g>
	<g>
		<path fill="#c3002f" d="M48,23.499c-18.175,0-34.005,9.668-42.5,24.002c8.496,14.334,24.326,25,42.5,25
			c18.171,0,34.005-10.666,42.501-25C82.005,33.167,66.171,23.499,48,23.499z M48,66.607c-14.03,0-27.184-7.075-34.86-18.606
			C20.82,36.465,33.97,29.392,48,29.392c14.03,0,27.18,7.074,34.86,18.609C75.18,59.532,62.03,66.607,48,66.607z M57.044,41.791
			c1.124,1.795,1.795,3.918,1.795,6.208c0,6.339-5.011,11.498-11.168,11.498c-6.158,0-11.168-5.158-11.168-11.498
			s5.01-11.497,11.168-11.497c2.691,0,5.131,1.026,7.062,2.666l4.173-3.641c-2.943-2.503-6.726-4.074-10.909-4.074
			c-9.254,0-16.788,7.423-16.788,16.546s7.534,16.546,16.788,16.546c9.258,0,16.788-7.424,16.788-16.546
			c0-3.597-1.202-6.904-3.187-9.623L57.044,41.791z"/>
	</g>
</g>
</svg>
