<?xml version="1.0" encoding="utf-8"?>
<!-- Generator: Adobe Illustrator 16.0.3, SVG Export Plug-In . SVG Version: 6.00 Build 0)  -->
<!DOCTYPE svg PUBLIC "-//W3C//DTD SVG 1.0//EN" "http://www.w3.org/TR/2001/REC-SVG-20010904/DTD/svg10.dtd">
<svg version="1.0" id="Layer_1" xmlns="http://www.w3.org/2000/svg" xmlns:xlink="http://www.w3.org/1999/xlink" x="0px" y="0px"
	 width="32px" height="32px" viewBox="0 0 96 96" enable-background="new 0 0 96 96" xml:space="preserve">
<path fill-rule="evenodd" clip-rule="evenodd" fill="#B2B2B2" d="M75.412,75.5h-51.75c-7.292-0.822-7.162-7.242-7.162-7.242
	s0-21.947,0-29.562c0-7.614,7.162-7.391,7.162-7.391h51.75c6.902,0,7.088,7.391,7.088,7.391v29.562
	C81.35,75.723,75.412,75.5,75.412,75.5z M29.414,34.964h-5.752c0,0-3.544-0.075-3.544,3.732c0,3.808,0,29.562,0,29.562
	s-0.037,3.582,3.544,3.582s5.752,0,5.752,0V34.964z M66.005,34.964H32.958V71.84h33.047V34.964z M75.412,34.964
	c-3.563,0-5.792,0-5.792,0V71.84h5.792c0,0,3.414-0.223,3.414-3.582s0-29.562,0-29.562S78.975,34.964,75.412,34.964z M49.565,24.121
	c-5.066,0-5.901,3.751-5.901,3.751h-3.748c0,0,1.132-7.372,9.649-7.372c8.517,0,9.519,7.372,9.519,7.372h-3.748
	C55.336,27.872,54.635,24.121,49.565,24.121z"/>
</svg>
