<?xml version="1.0" encoding="utf-8"?>
<!-- Generator: Adobe Illustrator 16.0.3, SVG Export Plug-In . SVG Version: 6.00 Build 0)  -->
<!DOCTYPE svg PUBLIC "-//W3C//DTD SVG 1.0//EN" "http://www.w3.org/TR/2001/REC-SVG-20010904/DTD/svg10.dtd">
<svg version="1.0" id="Layer_1" xmlns="http://www.w3.org/2000/svg" xmlns:xlink="http://www.w3.org/1999/xlink" x="0px" y="0px"
	 width="595.28px" height="841.89px" viewBox="0 0 595.28 841.89" enable-background="new 0 0 595.28 841.89" xml:space="preserve">
<g>
	<g>
		<path fill-rule="evenodd" clip-rule="evenodd" fill="#0A0405" d="M534.915,454.467c-6.365-27.313-18.921-46.665-33.692-60.377
			c0.982-6.552,1.499-13.251,1.499-20.069c0-75.748-62.781-137.152-140.232-137.152c-77.447,0-140.23,61.405-140.23,137.152
			c0,8.986,0.894,17.767,2.581,26.271c-18.641,9.92-30.652,17.819-30.652,17.819c-10.617,6.795-59.105,29.565-59.105,29.565
			c-57.662,24.149-46.678,89.066-46.678,89.066v21.889h45.478c5.313,25.094,28.374,43.972,56.018,43.972
			s50.707-18.878,56.018-43.972h183.726c5.31,25.094,28.374,43.972,56.019,43.972c27.249,0,50.033-18.352,55.766-42.905l0.145,0.067
			C549.445,527.716,534.915,454.467,534.915,454.467z M273.035,360.295h82.369v-78.553h20.654v78.553h82.339v19.701h-82.339v78.554
			h-20.654v-78.554h-82.369V360.295z M189.605,580.899c-19.278,0-34.91-15.036-34.91-33.589c0-18.551,15.631-33.593,34.91-33.593
			c19.282,0,34.913,15.042,34.913,33.593C224.518,565.863,208.887,580.899,189.605,580.899z M429.685,536.365H246.091
			c0,0-4.922-29.689-35.264-39.96c-6.482-2.456-13.539-3.822-20.927-3.822c-27.48,0-50.421,18.66-55.914,43.522
			c-0.025,0.086-0.053,0.173-0.081,0.26l-22.75-0.191c0,0-1.571-56.422,29.418-66.61c0,0,55.699-26.796,65.506-32.84
			c0,0,11.025-6.913,24.913-14.969c3.585,9.443,8.202,18.393,13.718,26.722l-20.979-0.048l-34.127,21.889l73.186,0.141
			c25.419,25.135,60.696,40.713,99.698,40.713c60.104,0,111.364-36.984,131.316-88.946c0.325,0.43,0.651,0.855,0.973,1.294
			c0,0,19.614,22.268,24.321,78.881c0,0-15.604-11.691-38.113-9.616C455.519,494.767,434.764,512.797,429.685,536.365z
			 M486.154,580.899c-19.285,0-34.916-15.036-34.916-33.589c0-18.551,15.631-33.593,34.916-33.593
			c19.278,0,34.909,15.042,34.909,33.593C521.063,565.863,505.433,580.899,486.154,580.899z"/>
	</g>
</g>
<g>
</g>
<g>
</g>
<g>
</g>
<g>
</g>
<g>
</g>
<g>
</g>
</svg>
