<?xml version="1.0" encoding="utf-8"?>
<!DOCTYPE svg PUBLIC "-//W3C//DTD SVG 1.0//EN" "http://www.w3.org/TR/2001/REC-SVG-20010904/DTD/svg10.dtd">
<svg version="1.0" id="Layer_1" xmlns="http://www.w3.org/2000/svg" xmlns:xlink="http://www.w3.org/1999/xlink" x="0px" y="0px"
	width="32px" height="32px" viewBox="0 0 96 96" enable-background="new 0 0 96 96" xml:space="preserve">
<path fill-rule="evenodd" clip-rule="evenodd" fill="#aaaaaa" d="M68.196,16.565c-5.338,0-9.667,4.249-9.667,9.488
	c0,0.764,0.115,1.496,0.289,2.207L36.1,41.267c-1.727-1.579-4.025-2.563-6.571-2.563c-5.337,0-9.666,4.247-9.666,9.486
	c0,5.239,4.329,9.488,9.666,9.488c2.546,0,4.844-0.986,6.571-2.563l22.955,13.143c-0.153,0.669-0.258,1.354-0.258,2.071
	c0,5.094,4.21,9.223,9.399,9.223c5.188,0,9.399-4.129,9.399-9.223c0-5.095-4.211-9.224-9.399-9.224c-2.444,0-4.65,0.938-6.326,2.44
	L38.906,50.397c0.172-0.711,0.29-1.443,0.29-2.207c0-0.763-0.118-1.495-0.29-2.207l22.719-13.005
	c1.728,1.577,4.025,2.563,6.571,2.563c5.335,0,9.666-4.248,9.666-9.487S73.531,16.565,68.196,16.565"/>
</svg>
